/* XPM */
static char * tree_xpm[] = {
"64 64 25 1",
" 	c #BBBDBD",
".	c #F5C800",
"+	c #F5B200",
"@	c #959595",
"#	c #CD9500",
"$	c #164100",
"%	c #133900",
"&	c #242424",
"*	c #575757",
"=	c #FFE700",
"-	c #FEC400",
";	c #5CEB00",
">	c #55DA00",
",	c #42AA00",
"'	c #1100D3",
")	c #0F00B5",
"!	c #0B008E",
"~	c #CF0000",
"{	c #BE0000",
"]	c #9D0000",
"^	c #433100",
"/	c #594100",
"(	c #194C00",
"_	c #4E3900",
":	c #684C00",
"                                 ..                             ",
"                                .  ..                           ",
"                               .++   ..                         ",
"                               .++                     @@       ",
"                              #.++#                     @@    @@",
"                             $#####$                     @@@@@@ ",
"                            $$$###$$$                           ",
"                           %%%$$$$$$%%                          ",
"                          $$$%%%%%%%%$$                         ",
"                    @@@@  $%$$$$$$$$$$%$                        ",
"                  @@@@@@@$$$$$%%%%%$$$$$$                       ",
"                 @@    &$$$$%%$$$$$%%$$$$$                      ",
"                      *&$%%%$$$$$$$$$%%%$$$                     ",
"                     %%%&$$$$%%$$$%%$$$$%%%%                    ",
"                       %$&$$%$$$$$$$%$$%$%                      ",
"                        $&%%$$$$$$$$$%%$$                       ",
"                       $=$&&$%%%%%%%$$$$$$             @@@@@@   ",
"                    $$$$%$%%&&$$$$$$%%$$%$$$$       @@@      @  ",
"                     $$%$$$*$$&$$$$$$$$$$%$       @@@         @@",
"                     $$%$$$$$$$&&&&$$$$$$%$                     ",
"                   $$%%$$%-$$%%%=%%&&&&&&&&&$$                  ",
"                    $$$$%;>,$$$$$$$$%=$$*$$$&                   ",
"                    $$$$%>>,$$$$$$$$%$$$$$$$$&                  ",
"                  $$%%%$$,,,$$$$$$$$$%$$$$%$=$&                 ",
"                   %$$$%$$$$$$%%%%%$$$%%$%$$$%&*                ",
"                  $$$$$%$$$$$%$$$$$%$$$$$%$$$$$                 ",
"                  $$$$$%%$$$%$$$$$$$%$$$%%$$$$$                 ",
"                $$$$$%%$%$%%$$$$$$$$$%$$%$%$$&&&&&&             ",
"              $$$$%%%$$$$%$$$$%$$$%$$$%%$&&&&%=$$$*             ",
"               $$%$$$$$$$$$$$%$$$$$%$$&&&$$$*$$%$$              ",
"       @@@@    $%%$$$$$$$$%%%$$$$$$$%&$$=$$$$$$%%$              ",
"     @@    @@@$$$$$%%%%$$$$$$$$$$$$$&$$$$$%%%%$$$$$             ",
"    @        $$$$$%$$$$%$$$$%$$$$$$&%*$$$%$$$$%$$$$$            ",
"             $$$$$%$$$$%$$$$%$$$$$$&%$$$$%$$$$%$$$$$            ",
"            $$$%%%$$$%%$$%%%$%$$$$&%$%%%$$%$$$$%%%$$$           ",
"         $$$$%%$$$$$%$$$%$$$$$%&&&%*$$$$%$$%%$-$$$%%$$$$        ",
"            $$$$$$$%$$$%$$$$$$&$=$$$$$$$$%$$$')!$$$$$           ",
"           $$$$$$$$%%%%%$$$$$$&$$$$$$$$$$%%%%))!$$$$$$          ",
"         &&&$$$%$$$$$$$$$%%$&&$$$$$$$$%%$$$$$!!!%%$$$$$         ",
"        $*$$&&&&&&&&&&&&&&&&$=%$$$%$$%$$$$%$$$$$$$%%$$$$$       ",
"       $$$$$*$$=$$$$*$$$*$$%$$%$$$%$$%$$$$%$$$$$$$%%$$$$$$      ",
"         $%%$%$$$$$%%$$$$$$$%%$$$$$%%$$$$$$%%%$$$$$%%&&&&       ",
"      *&$$$$%%%%$$$$$%%%$$$$$%%$$$%%$$$$$%%$$$$$%%%&&$$$=       ",
"       $&$$$$$$$%$$$%$$$$$%$$$$$$$$$$$%$$$$%$$$$$$&$$*$$$$      ",
"       =$&$$$$$$$%%%$$$$$%$%$$$$$$$$$%$%$$$$%%%&&&$$$$$$$$$     ",
"        $$&&%%$$$$-$$$$$$$$$$$%%%%%$$$$$$$$$$&&$$$*$%$$$$       ",
"       $$*%%&$$$$~{]$$%%$$$$%%$$$$$%%$$$$$$$&$=$$$$$$%$$$$      ",
"     $$$$$%%$&$$${{]$%$$$$$$$$$$$$$$$$$$$&&&$$$$$$$$$$%$$$$$    ",
"       %%%$$=$&&$]]]%$$$$$$$$$$$$$$$&&&&&$%*$$%$$$$$$$$%%%      ",
"    %%%%$$$$%%%$&&&&&&&&&&&&&&&&&&&&$$$%=$$%%$$%%%%%$$$$$$%%%   ",
"     %$$$$$%%$$=$$$%$*$%%*$$$$=$$$$$*$$$%%$$$%$$$$$$%$$$$$%     ",
"     %%$$$%%$$$$$$$%$$$%$$$$$$$%%%$$$$%$$%$$$%$$$$$$$%$$$$%     ",
"       %%%%$$$$%$$$%%%%$$$$$$%%$$$%%$$$$$$%%%%$$%%$$$%%%%%      ",
"          %$$$$%$$$$$$$$$$%%%$$$$$$$%%$$$$$$$$$$$%%%%%          ",
"          %%%%%$$$$$$$$$%%$$$$$$$$$$$$%%$$$$$$$$$$$$%%          ",
"             %%%%%%$$$$%$$$$$$$$$$$$$$$$%%$$$$%%%%%%            ",
"                  %%%%%$$$%%%$$$$$$$%%$$$%%%%%%                 ",
"                     %$$$% ^/%%$$$%%/^%$$$%      @@      @@@    ",
"                     %%%%%^^/^%%%%%^/^%%%%%       @@@@@@@@      ",
"                         ^^//^//^//^//^^             @@@        ",
"             %%%%%%%%((%__//__//^::__::__%%%%%%%((              ",
"          %%%%(%(%%%%%%__//__///^:::__::__%((%((%%(%%           ",
"        %%%(%%(%%((%((%_//__////^:::__:::_%(%%%%%(%%((%         ",
"             %%%%%%%%(%%((%((%%%%%%((%%%(%%%%((%(%              "};
