/* XPM */
static char * babboframes4_xpm[] = {
"64 64 31 1",
" 	c #BBBDBD",
".	c #959595",
"+	c #C13B00",
"@	c #DC4300",
"#	c #BD0E00",
"$	c #CA5725",
"%	c #9A2F00",
"&	c #9E0C00",
"*	c #E5E5E5",
"=	c #B4B4B4",
"-	c #A3A3A3",
";	c #FFA165",
">	c #FFB88A",
",	c #C1BFBF",
"'	c #B03600",
")	c #FF8C43",
"!	c #000000",
"~	c #FFFFFF",
"{	c #FF8A8A",
"]	c #B40E00",
"^	c #910B00",
"/	c #880000",
"(	c #FB9E00",
"_	c #777777",
":	c #AB0D00",
"<	c #882A00",
"[	c #E59000",
"}	c #CF8300",
"|	c #802700",
"1	c #3E1300",
"2	c #651F00",
"                                                                ",
"                                                                ",
"                                                                ",
"                                                       ..       ",
"                                                        ..    ..",
"                                                         ...... ",
"                    ++++                                        ",
"                    +++++                                       ",
"                   ++++++                                       ",
"                   +++++++                                      ",
"                  ++++++++                                      ",
"                 @@@@@@@@@@@       #######                      ",
"               @@@@@@@@@@@@@@@@  ###########                    ",
"             @@@@+++++++++++@@@@#############                   ",
"            @@$%++++++++++++++@###&&##&&&&&&&&       *          ",
"           @@%%%$%+++++++++++++##&&&&&&########                 ",
"          @@$%%%%%++++++++++++=-&&@&&&##&&&&&&##    *  ......   ",
"         @@%%%%%$+++++++++++++--++@@&##&&;;;;;&#    ...      .  ",
"        @@+$%%%%+++++++++++++++++++@##&&;>>>>>;&  ...         ..",
"        @@++%%$+++++++++++++++++++++#&;;===>>,-;                ",
"       @@@++++++++++++'''''''++++++++,;)>!~>>~!;  *             ",
"       @+++++++++++++''&&&&&''+++++++,;>>>>{{>>;                ",
"       @++++++++++++'']]]]]&&''++++++,,,>>,,,,>^                ",
"      @+++++++++++++']&&##]]&&''+++++/,,,=----=&^               ",
"      @++++++++++++'']&&###]&^/''++++/,,,=)))(~~_^              ",
"      @++++++++++++']]#####]&^//'++>>//,,==>>=-&&&^             ",
"      @+++++++++++'']#####]&^///'>>>>>/,,,===-]]&&^             ",
"      @+++++++++++']]#####]&^////>>>>>//,,===-]]]&^             ",
"      @+++++++++++']####&]]]&^///+>>>;]/,,,=-]]]]&^             ",
"      @+++++++++++'&&]]]]]]]]&^^//+;;+]]/,,=-]]]]&^             ",
"      @+++++++++++''^^&&]]]]]]&&^^+>>>&]],,-^]]]&&^             ",
"     .@+++++++++++''::^^&&&]]]]]&&>>>>>&]],-]]]&&^              ",
"    . @+++++++++++''::::^^^&&]]]]]>>>>;^&&]]]]&&^^              ",
"      @+++++++++++'::::::::^^&&&&&;;;;@@^^&&&&&^^               ",
"      @++++++++++''::::^&^:::^^^^@@@'''@@-^^^^^^&               ",
"      @+++++++++'''::::&&&::::::@++''@@'@-:::&&&&&              ",
"       +++++++++''':::^&&^:::::::@''-;@@--::::&&&&              ",
"       '++++++$%$'':::&&&::#####:::--;;---:####&&&              ",
"       '+++++%%%%''<::^&^:######::---;;--::#####&&              ",
"       ''''''$%$'''<::::::######::--;;;--::#####&%              ",
"        '''''''''''<%:::::######:---;;---::#####%%              ",
"        '''''''''''<<%%:::#####::-[[[[[[[:::####%<              ",
"         '''''''''''<<%%%::::::%%%[<<<<<}%::::%%<^              ",
"          ''''''''''&&<<<<<<<<%%%%[[[[[<}%%%<<<<^^              ",
"            ''''''''::&&&&&&&&<<<<[<<<<<}<<<^^^^^               ",
"               '''' :####:::::&&&&[}}}}}}^^^^^^^^               ",
"                     ########:::::&&&&&&&^^^^^^^^               ",
"                     ###########::::&&&&^^^^^^^^                ",
"                     :##;;;####:::&&&&^^^^^^^^;                 ",
"                      ##>>>;##::&&&&&^^^^^^^^;                  ",
"                      :##;>;#::&&    ^^^^^^^^^                  ",
"                       ::###:&&       |||^^^1                   ",
"                       ||:::22        22||--1                   ",
"             ..........1|---21         12222                    ",
"            ..        ..12221          1122||||                 ",
"                       |||||1          1112||||                 ",
"                       |||||1                                   ",
"                                                 ..      ...    ",
"                                                  ........      ",
"                                                     ...        ",
"                                                                ",
"                                                                ",
"                                                                ",
"                                                                "};
