/* XPM */
static char * bimbo_xpm[] = {
"64 64 22 1",
" 	c #BBBDBD",
".	c #959595",
"+	c #AD6F00",
"@	c #885700",
"#	c #E9AD54",
"$	c #00328E",
"%	c #0043BE",
"&	c #FFC46D",
"*	c #FFD28F",
"=	c #455D00",
"-	c #668A00",
";	c #CBFFE9",
">	c #547100",
",	c #D7AF00",
"'	c #B99700",
")	c #B7B7B7",
"!	c #1E59C4",
"~	c #548FF8",
"{	c #3472E2",
"]	c #CF0000",
"^	c #515151",
"/	c #9D0000",
"                                                                ",
"                                                                ",
"                                                                ",
"                                                       ..       ",
"                                                        ..    ..",
"                                                         ...... ",
"                                                                ",
"                                                                ",
"                                                                ",
"                    ....                                        ",
"                  ........                                      ",
"                 ..      ..                                     ",
"                                                                ",
"                                                                ",
"                                                                ",
"                                                                ",
"                                                       ......   ",
"                                                    ...      .  ",
"                                                  ...         ..",
"                                                                ",
"                                                                ",
"                                                                ",
"                             +++++++                            ",
"                            +@@@@@@@+                           ",
"                           +@@@@@@@@@+                          ",
"                          +@@+++++++@@+                         ",
"                          @@+@@@@@@@+@@                         ",
"                          @+@@@@@@@@@+@                         ",
"                          @@@#######@@@                         ",
"                          @@$%&&&&&%$@@                         ",
"       ....               @$%$%***%$%$@                         ",
"     ..    ...            =%$%$***$%$%=                         ",
"    .        .....       --=%$;***;$%=>>                        ",
"                         -->=;;###;;=->>                        ",
"                         -->>,;&&&;,--->                        ",
"                        ===>,,,,,,,,'-===                       ",
"                        --=='',,,,''===>>                       ",
"                    ,,  -->>=''''''-=-->> ......                ",
"                    ',,,-->>=-=-)>=-=-->>..     ..              ",
"                    '',,--->===-)>===-->>                       ",
"                     ''',--==-=-)>=-==->                        ",
"                       '''==->=-)>=->==                         ",
"                          =-->=-)>=->>=                         ",
"                          =====-)>=====                         ",
"                           =->=-)>=->=                          ",
"                           =->=-)>=->=                          ",
"                           ====-)>====                          ",
"                           !~{{{~{{{~!                          ",
"                           !~{{!{!{{~!                          ",
"                           ~{{{! !{{{~                          ",
"                           {{{!! !!{{{                          ",
"                           !!{!   !{!!                          ",
"                           {{!!   !!{{                          ",
"             ..........    {{{!   !{{{                          ",
"            ..        ...  ]{]]   !{{]                          ",
"                        ..^^^]/   !]^^^                         ",
"                          ]]]//   //]]]                         ",
"                                                 ..      ...    ",
"                                                  ........      ",
"                                                     ...        ",
"                                                                ",
"                                                                ",
"                                                                ",
"                                                                "};
