/* XPM */
static char * coll2_xpm[] = {
"64 64 45 1",
" 	c #565656",
".	c #969696",
"+	c #B5B5B5",
"@	c #C9C9C9",
"#	c #BDBDBD",
"$	c #A3A3A3",
"%	c #747474",
"&	c #D3D3D3",
"*	c #E0E0E0",
"=	c #E9E9E9",
"-	c #EBEBEB",
";	c #F2F2F2",
">	c #EDEDED",
",	c #DADADA",
"'	c #CBCBCB",
")	c #ECECEC",
"!	c #F6F6F6",
"~	c #F8F8F8",
"{	c #F7F7F7",
"]	c #CFCFCF",
"^	c #7B7B7B",
"/	c #D7D7D7",
"(	c #E3E3E3",
"_	c #E6E6E6",
":	c #EEEEEE",
"<	c #E5E5E5",
"[	c #C5C5C5",
"}	c #F3F3F3",
"|	c #E2E2E2",
"1	c #F1F1F1",
"2	c #E7E7E7",
"3	c #C4C4C4",
"4	c #898989",
"5	c #B0B0B0",
"6	c #D8D8D8",
"7	c #BEBEBE",
"8	c #DEDEDE",
"9	c #EFEFEF",
"0	c #EAEAEA",
"a	c #F5F5F5",
"b	c #DDDDDD",
"c	c #B9B9B9",
"d	c #DFDFDF",
"e	c #DBDBDB",
"f	c #999999",
"                                                                ",
"                                                                ",
"                                                                ",
"                                                                ",
"                                                                ",
"                                                                ",
"                                                                ",
"                                                                ",
"                                                                ",
"                                                                ",
"                                                                ",
"                                                                ",
"                                                                ",
"                                                                ",
"                                                                ",
"                                                                ",
"                                      .+@#$%                    ",
"                               %$#@&*=-;;;>,+                   ",
"                            %$'*);;;!~~;;;{!>].^                ",
"                        %#/(_);!!;;;:-<,@&>!~<].                ",
"                     .[*=}!{!!;)*&@#$%    +,|<].                ",
"                   .[*1!~{!})*'$%           ^..^                ",
"                 .]<;!;:=2/34%                                  ",
"                561~;=&$%                                       ",
"               78!;<&$%                                         ",
"              %8~9].                                            ",
"              $:!(%                                             ",
"              &;;[                                              ",
"             .<~<.                                              ",
"             [;;&                                               ",
"            %*!)$                                               ",
"            $)!*%                                               ",
"            ';;'                                                ",
"            *!:$                                                ",
"           +1~0%                                                ",
"           ,!!,                                                 ",
"          %0~1+                                                 ",
"          $:!*                                                  ",
"          #;;&                                                  ",
"          @;;@                                                  ",
"          @;;@                                                  ",
"          @;;@                                                  ",
"          #;;&                                                  ",
"          $:!*                                                  ",
"          %<~=.                                                 ",
"           &;;[                                                 ",
"           $)!*%                                                ",
"           %*!)$                                                ",
"            [1a2+                                               ",
"            .,!!b4                                              ",
"             +={9[                                              ",
"              5<!*.                                             ",
"               [91&4                                            ",
"               .6!)[                                            ",
"                5*!-/#%                                         ",
"                 cd{!;ec%                                       ",
"                 %7-!{!)*[.                                     ",
"                   +&2)!!;=*'$%                                 ",
"                     %ce);~!;:-=*&#$%                           ",
"                       %$&<:;!~~!;;:=_||_67                     ",
"                          %$'*=-:;;!~!!!!~7                     ",
"                               %$#&*=::::87                     ",
"                                    %4ff4%                      ",
"                                                                "};
