/* XPM */
static char * enemy2_xpm[] = {
"64 64 46 1",
" 	c #565656",
".	c #BEBEBE",
"+	c #969696",
"@	c #DEDEDE",
"#	c #F8F8F8",
"$	c #E5E5E5",
"%	c #B5B5B5",
"&	c #F2F2F2",
"*	c #F6F6F6",
"=	c #747474",
"-	c #C9C9C9",
";	c #F7F7F7",
">	c #EEEEEE",
",	c #A3A3A3",
"'	c #D3D3D3",
")	c #F5F5F5",
"!	c #CBCBCB",
"~	c #CFCFCF",
"{	c #E0E0E0",
"]	c #F1F1F1",
"^	c #F0F0F0",
"/	c #DADADA",
"(	c #E9E9E9",
"_	c #E7E7E7",
":	c #E3E3E3",
"<	c #ECECEC",
"[	c #DDDDDD",
"}	c #BDBDBD",
"|	c #EFEFEF",
"1	c #898989",
"2	c #E6E6E6",
"3	c #999999",
"4	c #E2E2E2",
"5	c #AEAEAE",
"6	c #DCDCDC",
"7	c #EBEBEB",
"8	c #D7D7D7",
"9	c #C5C5C5",
"0	c #D6D6D6",
"a	c #CECECE",
"b	c #F3F3F3",
"c	c #EDEDED",
"d	c #7F7F7F",
"e	c #F4F4F4",
"f	c #8C8C8C",
"g	c #B0B0B0",
"                                                                ",
"                                                                ",
"                                                                ",
"                                                                ",
"                                                                ",
"                                                                ",
"                                                                ",
"                                                                ",
"                   ...                                          ",
"                  +@#$.                                         ",
"                  %&*#@=                                        ",
"                  -&;;>,                                        ",
"                  '&))&!                    +~~%                ",
"                  {*]^*{=                   %&)/                ",
"                 +(#_:*<,                   ')*[                ",
"                 %&&/'&&}                  ={*|}                ",
"                 -&&-}&&'                  1<*2=                ",
"                 -&&-,>*{                  3>*4                 ",
"                 -&&-=$#(+                 5>*6                 ",
"                 '&&} /&&%                 !&&!                 ",
"                 6*>5 }&&'                ={*<,                 ",
"                 2*>1 ,<*{=               ,<*{=                 ",
"                 (#7= =_;&}               }&&'                  ",
"                =7#(   8**8               '&&}                  ",
"                ,>*{   }&;_=              {*>,                  ",
"                !&&!   ={*<,             +(#$=                  ",
"                6*>5    '&&}             %&&/                   ",
"                2*>1    }&&'             /&&%                   ",
"               =(#(=    ,>*{            +$#$+                   ",
"               1>*2     =(#(=           9&&'                    ",
"               3>*4      2*>1           {*>,                    ",
"               3>*4      6*>5          +(#$=                    ",
"               5>*6      '&&}          %&&/                     ",
"               }&&'      }&&'          '&&}                     ",
"               -&&-      ,>*{          6*>5                     ",
"               '&&}      =$#(+        =2*<1                     ",
"              ={*<,       4))-        }&;_=                     ",
"              ,<*{=       0**0        8**8                      ",
"              }&&'        a))[        _;b}                      ",
"              '&&}        ,>*{       +(#$=                      ",
"              {*>,        =$#(+      %&&/                       ",
"             =(#(=         /&&%      '&&}                       ",
"             ,>*{          }&&'      {*>,                       ",
"             }&&'          ,>*{      (#7=                       ",
"             -&&-          =(#(=    +7#$                        ",
"             '&&}           {*>,    %&&/                        ",
"             {*>,           9|&'+   '&&}                        ",
"             (#7=           +'&|9  ={*<,                        ",
"            =7#(             ,(*{+ ,<*{=                        ",
"            ,>*{             ='&]9 }&&'                         ",
"            }&&'              ,>*{ '&&}                         ",
"            -&&-              =(#(=6*>5                         ",
"            -&&-               {*>,4*>3                         ",
"            -&&-               9&&'2*>1                         ",
"            '&&}               +$#$c#7=                         ",
"            {*>,                /&&]#(                          ",
"            (#7=                %&b)*2                          ",
"           dc#(                 +(#**6                          ",
"           ,|*{                  {;;e'                          ",
"           ,((9                  9);e%                          ",
"           fggf                  +$#$+                          ",
"                                  ...                           ",
"                                                                ",
"                                                                "};
