/* XPM */
static char * exitc_xpm[] = {
"64 64 49 1",
" 	c #565656",
".	c #BEBEBE",
"+	c #D8D8D8",
"@	c #E6E6E6",
"#	c #DCDCDC",
"$	c #CBCBCB",
"%	c #A3A3A3",
"&	c #747474",
"*	c #CFCFCF",
"=	c #F8F8F8",
"-	c #F7F7F7",
";	c #F6F6F6",
">	c #F2F2F2",
",	c #EEEEEE",
"'	c #EBEBEB",
")	c #E9E9E9",
"!	c #D3D3D3",
"~	c #C9C9C9",
"{	c #BDBDBD",
"]	c #AEAEAE",
"^	c #898989",
"/	c #F5F5F5",
"(	c #F4F4F4",
"_	c #E0E0E0",
":	c #999999",
"<	c #DDDDDD",
"[	c #E7E7E7",
"}	c #B0B0B0",
"|	c #969696",
"1	c #ECECEC",
"2	c #D7D7D7",
"3	c #C5C5C5",
"4	c #E2E2E2",
"5	c #E5E5E5",
"6	c #DADADA",
"7	c #B5B5B5",
"8	c #F1F1F1",
"9	c #B9B9B9",
"0	c #DBDBDB",
"a	c #EFEFEF",
"b	c #F0F0F0",
"c	c #E3E3E3",
"d	c #F3F3F3",
"e	c #E8E8E8",
"f	c #DEDEDE",
"g	c #7B7B7B",
"h	c #8E8E8E",
"i	c #C6C6C6",
"j	c #DFDFDF",
"                                                                ",
"                                                                ",
"                                                                ",
"                                                                ",
"                                                                ",
"     .+@#$%&                                                    ",
"     *=-;>,')@#!~{%&    &%{!!!~~{]^&                            ",
"     */-(>;==;;>>>,'''''',>>;>>>>,,)_###!{]::^& &%<[_}          ",
"     |[=12_)',,>>>;======;>>,>>>>;;=;>;;>>,,,,''',/=;.          ",
"      !>>3  &^]{~!_)'''')_!{{{~~!#@),>,,>>;;;;===;//,.          ",
"      %,;_                         &%]]]{!#44@)')_!{%&          ",
"      &5=)|                                                     ",
"       6>>7                                                     ",
"       7>>6                                                     ",
"       |)=5&                                                &%$_",
"        _;,%                                           &%{!_),>;",
"        $>>$                                        &%$_1>>;=;>,",
"        %,;_                                      |3_1>;;>>,)_$%",
"        &5=)|                                    }+8;;>1_!{%&   ",
"         6>>7                                  |*5;>1_$%&       ",
"         7>>6                                &908=)!%&          ",
"         |)=5&                              |*);>_3&            ",
"          _;,%                            |*5>;)*|              ",
"          !>>{                           |*a=809&               ",
"          ~>>~                         |*5>>5*|                 ",
"          {>>!                       &908=a*|                   ",
"          ],;#                      |*);>5*|                    ",
"          ^,;@      &^:^&   &%{{%&&908;)*|                      ",
"          &'=b~*~!#@),,,)@44@1>>c**);809&                       ",
"           '=;dd>>;;=;;;=;;;;;>>/)8;)*|                         ",
"          &'=/dd>>,,)@4@),,,1_2e,-809&                          ",
"          %,;'~*~{]^&   &^::^%*)=)*|                            ",
"          {>>!             |*5>;_3&                             ",
"          !>>{           |*5>=8+}                               ",
"          #;,]         &908=>5*|                                ",
"          4;,:        |*);>5*|                                  ",
"          @;,^      |*5>;)*|                                    ",
"          )='&    &908=809&                                     ",
"          '='    |*);>5*|                                       ",
"          '='   |*a;)*|                                         ",
"          '=' &908809&                                          ",
"          '='|*);a*|                                            ",
"          '=b+8;)*|                                             ",
"          ,=;;809&                                              ",
"         |d==)*|                                                ",
"        }+-=/3&                                                 ",
"      &3_;-=,                                                   ",
"     |*)=)d='                                                   ",
"    |*a;_31='                                                   ",
"   }+88+} '='                                                   ",
"  }f;a*|  '='                                                   ",
"g3#/1!|   '='                                                   ",
"|5;[3^    '='                  |7!_)'f.                         ",
"|5)*      )=)           |7!#44@)>>;===.                         ",
"g%%h      fdf      &%$_)'>>;;;;=>>,''f.                         ",
"          i_<9::]{65,>;==>>,,,,56{%&                            ",
"          %[(b,,,>>=;>,'56{]::^&                                ",
"          |5d;;;;>>)_$%&                                        ",
"          g7!j44#!7|                                            ",
"                                                                ",
"                                                                ",
"                                                                ",
"                                                                ",
"                                                                "};
