/* XPM */
static char * exito_xpm[] = {
"64 64 44 1",
" 	c #565656",
".	c #BEBEBE",
"+	c #D8D8D8",
"@	c #E6E6E6",
"#	c #DCDCDC",
"$	c #CBCBCB",
"%	c #A3A3A3",
"&	c #747474",
"*	c #CFCFCF",
"=	c #F8F8F8",
"-	c #F7F7F7",
";	c #F6F6F6",
">	c #F2F2F2",
",	c #EEEEEE",
"'	c #EBEBEB",
")	c #E9E9E9",
"!	c #D3D3D3",
"~	c #C9C9C9",
"{	c #BDBDBD",
"]	c #AEAEAE",
"^	c #898989",
"/	c #F5F5F5",
"(	c #F4F4F4",
"_	c #E0E0E0",
":	c #999999",
"<	c #DDDDDD",
"[	c #E7E7E7",
"}	c #B0B0B0",
"|	c #969696",
"1	c #ECECEC",
"2	c #D7D7D7",
"3	c #C5C5C5",
"4	c #E2E2E2",
"5	c #E5E5E5",
"6	c #DADADA",
"7	c #B5B5B5",
"8	c #F0F0F0",
"9	c #E3E3E3",
"0	c #F3F3F3",
"a	c #DEDEDE",
"b	c #C6C6C6",
"c	c #B9B9B9",
"d	c #7B7B7B",
"e	c #DFDFDF",
"                                                                ",
"                                                                ",
"                                                                ",
"                                                                ",
"                                                                ",
"     .+@#$%&                                                    ",
"     *=-;>,')@#!~{%&    &%{!!!~~{]^&                            ",
"     */-(>;==;;>>>,'''''',>>;>>>>,,)_###!{]::^& &%<[_}          ",
"     |[=12_)',,>>>;======;>>,>>>>;;=;>;;>>,,,,''',/=;.          ",
"      !>>3  &^]{~!_)'''')_!{{{~~!#@),>,,>>;;;;===;//,.          ",
"      %,;_                         &%]]]{!#44@)')_!{%&          ",
"      &5=)|                                                     ",
"       6>>7                                                     ",
"       7>>6                                                     ",
"       |)=5&                                                    ",
"        _;,%                                                    ",
"        $>>$                                                    ",
"        %,;_                                                    ",
"        &5=)|                                                   ",
"         6>>7                                                   ",
"         7>>6                                                   ",
"         |)=5&                                                  ",
"          _;,%                                                  ",
"          !>>{                                                  ",
"          ~>>~                                                  ",
"          {>>!                                                  ",
"          ],;#                                                  ",
"          ^,;@      &^:^&   &%{{%&                              ",
"          &'=8~*~!#@),,,)@44@1>>9.                              ",
"           '=;00>>;;=;;;=;;;;;>>0.                              ",
"          &'=/00>>,,)@4@),,,1_!!3}                              ",
"          %,;'~*~{]^&   &^::^&                                  ",
"          {>>!                                                  ",
"          !>>{                                                  ",
"          #;,]                                                  ",
"          4;,:                                                  ",
"          @;,^                                                  ",
"          )='&                                                  ",
"          '='                                                   ",
"          '='                                                   ",
"          '='                                                   ",
"          '='                                                   ",
"          '='                                                   ",
"          '='                                                   ",
"          '='                                                   ",
"          '='                                                   ",
"          '='                                                   ",
"          '='                                                   ",
"          '='                                                   ",
"          '='                                                   ",
"          '='                                                   ",
"          '='                                                   ",
"          '='                  |7!_)'a.                         ",
"          )=)           |7!#44@)>>;===.                         ",
"          a0a      &%$_)'>>;;;;=>>,''a.                         ",
"          b_<c::]{65,>;==>>,,,,56{%&                            ",
"          %[(8,,,>>=;>,'56{]::^&                                ",
"          |50;;;;>>)_$%&                                        ",
"          d7!e44#!7|                                            ",
"                                                                ",
"                                                                ",
"                                                                ",
"                                                                ",
"                                                                "};
