/* XPM */
static char * exito_xpm[] = {
"64 64 7 1",
" 	c #BBBDBD",
".	c #959595",
"+	c #4C4C4C",
"@	c #777777",
"#	c #5D5D5D",
"$	c #1F1F1F",
"%	c #000000",
"                                                                ",
"                                                                ",
"                                                                ",
"                                                       ..       ",
"                                                        ..    ..",
"                                                         ...... ",
"                                                                ",
"                                                                ",
"                                                                ",
"                    ....                                        ",
"                  ........                                      ",
"                 ..      ..                                     ",
"                                                                ",
"                           ++++++++++++                         ",
"                    @@@@@@@@@@@@@@@@@@@@@@@@@@                  ",
"                  @@@@@@@@@@@@@@@@@@############                ",
"                 ################################      ......   ",
"                 +++#+##++##+##++++##+##++##+#+++   ...      .  ",
"                +##++++++++++++++++++++++++++++##+...         ..",
"                +######++$$$$$$$$$$$$$$$$++######+              ",
"               +######++$$$$$$$$$$$$$$$$$$++######+             ",
"               +#####++$$$$$$$$$$$$$$$$$$$$++#####+             ",
"               +####++$$$$$$$$$$$$$$$$$$$$$$++####+             ",
"              +####++$$$$$$$%%%%%%%%%%$$$$$$$++####+            ",
"              +####+$$$$$$%%%%%%%%%%%%%%$$$$$$+####+            ",
"              +###++$$$$%%%%%%%%%%%%%%%%%%$$$$++###+            ",
"              +###+$$$$%%%%%%%%%%%%%%%%%%%%$$$$+###+            ",
"              +##++$$$%%%%%%%%%%%%%%%%%%%%%%$$$++###+           ",
"             +###+$$$$%%%%%%%%%%%%%%%%%%%%%%$$$$+###+           ",
"             +###+$$$%%%%%%%%%%%%%%%%%%%%%%%%$$$+###+           ",
"       ....  +###+$$$%%%%%%%%%%%%%%%%%%%%%%%%$$$+###+           ",
"     ..    ..+###+$$%%%%%%%%%%%%%%%%%%%%%%%%%%$$+###+           ",
"    .        +###+$$%%%%%%%%%%%%%%%%%%%%%%%%%%$$+###+           ",
"             +###+$$%%%%%%%%%%%%%%%%%%%%%%%%%%$$+###+           ",
"             +###+$$%%%%%%%%%%%%%%%%%%%%%%%%%%$$+###+           ",
"             +###+$$%%%%%%%%%%%%%%%%%%%%%%%%%%$$+###+           ",
"             +###++$%%%%%%%%%%%%%%%%%%%%%%%%%%$++###+           ",
"              +###+$%%%%%%%%%%%%%%%%%%%%%%%%%%$+###+            ",
"              +###++$%%%%%%%%%%%%%%%%%%%%%%%%$++###+            ",
"              +####+$%%%%%%%%%%%%%%%%%%%%%%%%$+####+            ",
"              +####++%%%%%%%%%%%%%%%%%%%%%%%%++####+            ",
"               +####++%%%%%%%%%%%%%%%%%%%%%%++####+             ",
"               +#####++%%%%%%%%%%%%%%%%%%%%++#####+             ",
"               +######++%%%%%%%%%%%%%%%%%%++######+             ",
"                +######+++%%%%%%%%%%%%%%+++######+              ",
"                +########+++%%%%%%%%%%+++########+              ",
"                 +#########++++++++++++#########+               ",
"                  ++##########################++                ",
"                    +++####################+++                  ",
"                       ++++############++++                     ",
"                           ++++++++++++                         ",
"                                                                ",
"                                                                ",
"             ..........                                         ",
"            ..        ...                                       ",
"                        ...                                     ",
"                                                                ",
"                                                 ..      ...    ",
"                                                  ........      ",
"                                                     ...        ",
"                                                                ",
"                                                                ",
"                                                                ",
"                                                                "};
