/* XPM */
static char * exitc_xpm[] = {
"64 64 5 1",
" 	c #BBBDBD",
".	c #959595",
"+	c #4C4C4C",
"@	c #5D5D5D",
"#	c #777777",
"                                                                ",
"                                                                ",
"                                                                ",
"                                                       ..       ",
"                                                        ..    ..",
"                                                         ...... ",
"                                                                ",
"                                                                ",
"                                                                ",
"                    ....                                        ",
"                  ........                                      ",
"                 ..      ..                                     ",
"                                                                ",
"                           ++++++++++++                         ",
"                       ++++@@@@@@@@@@@@++++                     ",
"                    +++@@@@@@@@@@@@@@@@@@@@+++                  ",
"                  ++@@@@@@@@@@@@@@@@@@@@@@@@@@++       ......   ",
"                 +@@@@@@@@@############@@@@@@@@@+   ...      .  ",
"                +@@@@@@@@###++++++++++###@@@@@@@@+...         ..",
"                +@@@@@@###++@@@@@@@@@@++###@@@@@@+              ",
"               +@@@@@@##++@@@########@@@++##@@@@@@+             ",
"               +@@@@@##+@@@##++++++++##@@@+##@@@@@+             ",
"               +@@@@##+@@##++@@@@@@@@++##@@+##@@@@+             ",
"              +@@@@##+@@##+@@########@@+##@@+##@@@@+            ",
"              +@@@@#+@@##+@##+######+##@+##@@+#@@@@+            ",
"              +@@@##+@##+@##############@+##@+##@@@+            ",
"              +@@@#+@@#+@################@+#@@+#@@@+            ",
"              +@@##+@#+@##+###@@@@@@###+##@+#@+##@@@+           ",
"             +@@@#+@@#+@#####@++++++@#####@+#@@+#@@@+           ",
"             +@@@#+@##+@####@++####++@####@+##@+#@@@+           ",
"       ....  +@@@#+@##+@#+##@+######+@##+#@+##@+#@@@+           ",
"     ..    ..+@@@#+@#+@##+##@+######+@##+##@+#@+#@@@+           ",
"    .        +@@@#+@#+@##+##@+######+@##+##@+#@+#@@@+           ",
"             +@@@#+@##+@####@++####++@####@+##@+#@@@+           ",
"             +@@@#+@##+@#####@++++++@#####@+##@+#@@@+           ",
"             +@@@#+@@#+@##+###@@@@@@###+##@+#@@+#@@@+           ",
"             +@@@##+@#+@##################@+#@+##@@@+           ",
"              +@@@#+@@#+@###+########+###@+#@@+#@@@+            ",
"              +@@@##+@##+@#####@@@@#####@+##@+##@@@+            ",
"              +@@@@#+@@##+@@##@++++@##@@+##@@+#@@@@+            ",
"              +@@@@##+@@##++@@@#@@#@@@++##@@+##@@@@+            ",
"               +@@@@##+@@###++@#++#@++###@@+##@@@@+             ",
"               +@@@@@##+@@@###+@@@@+###@@@+##@@@@@+             ",
"               +@@@@@@##++@@@##++++##@@@++##@@@@@@+             ",
"                +@@@@@@###++@@@@@@@@@@++###@@@@@@+              ",
"                +@@@@@@@@###++++++++++###@@@@@@@@+              ",
"                 +@@@@@@@@@############@@@@@@@@@+               ",
"                  ++@@@@@@@@@@@@@@@@@@@@@@@@@@++                ",
"                    +++@@@@@@@@@@@@@@@@@@@@+++                  ",
"                       ++++@@@@@@@@@@@@++++                     ",
"                           ++++++++++++                         ",
"                                                                ",
"                                                                ",
"             ..........                                         ",
"            ..        ...                                       ",
"                        ...                                     ",
"                                                                ",
"                                                 ..      ...    ",
"                                                  ........      ",
"                                                     ...        ",
"                                                                ",
"                                                                ",
"                                                                ",
"                                                                "};
