/* XPM */
static char * player_xpm[] = {
"64 64 49 1",
" 	c #565656",
".	c #747474",
"+	c #A3A3A3",
"@	c #BDBDBD",
"#	c #C9C9C9",
"$	c #969696",
"%	c #D8D8D8",
"&	c #E6E6E6",
"*	c #E8E8E8",
"=	c #DCDCDC",
"-	c #D3D3D3",
";	c #E0E0E0",
">	c #E9E9E9",
",	c #EBEBEB",
"'	c #EEEEEE",
")	c #F2F2F2",
"!	c #F5F5F5",
"~	c #F8F8F8",
"{	c #F7F7F7",
"]	c #F6F6F6",
"^	c #EAEAEA",
"/	c #DDDDDD",
"(	c #CECECE",
"_	c #DBDBDB",
":	c #B9B9B9",
"<	c #C4C4C4",
"[	c #F3F3F3",
"}	c #AEAEAE",
"|	c #898989",
"1	c #F1F1F1",
"2	c #ECECEC",
"3	c #E3E3E3",
"4	c #CBCBCB",
"5	c #B5B5B5",
"6	c #E7E7E7",
"7	c #F4F4F4",
"8	c #E5E5E5",
"9	c #B0B0B0",
"0	c #DEDEDE",
"a	c #BEBEBE",
"b	c #CFCFCF",
"c	c #C5C5C5",
"d	c #EDEDED",
"e	c #E2E2E2",
"f	c #999999",
"g	c #DADADA",
"h	c #EFEFEF",
"i	c #D1D1D1",
"j	c #676767",
"                                                                ",
"                                                                ",
"                                                                ",
"                                                                ",
"                                                                ",
"                                                                ",
"                       .+@#@+.                                  ",
"          $%&*=-####-;>,')))'>&=-##@+.                          ",
"          #!~{]))))))]~~])))]~]]))))'^/@.                       ",
"          ({~!'))))))',>;-#-;>''))))]~])_:.                     ",
"          <[{>}@####@+.      .|}@##-;1]{]234+                   ",
"          |']&                       5-62]{78$                  ",
"          .,~>                         .:_){7%9                 ",
"           ,~,                           .43)]0a                ",
"           ,~,                             $b>~%9               ",
"           ,~,                              .cd]0               ",
"           >~,.                               8~,$              ",
"           &]'|                               -1)b.             ",
"           e]'f                               $;]>+             ",
"           e]'f                                -))@             ",
"           e]'f                                #))#             ",
"           e]'f                               .g)15             ",
"           e]'f                               +>];$             ",
"           e]'f                              $-)hc              ",
"           e]'f                             .bh1b$              ",
"           e]'f                            .c>!%$               ",
"           e]'f                           +-^!%9                ",
"           e]'f                         $b6[]%9                 ",
"           =]'}                       $c;1~)09                  ",
"           -))@                    $c;>)])8b$                   ",
"           @))-               .|}@g8)]~)>b$                     ",
"           +'];            .+4;2'))~)'8-+.                      ",
"           .8~>$        $5-;2)]]]))8-+.                         ",
"            g))@|ff}@#-;>))]])2&=-5$                            ",
"            #))e3''')))]~))2;4+.                                ",
"            #))e[]]])))'8g@+.                                   ",
"            #))/iee=-#@+.                                       ",
"            #))#                                                ",
"            -))@                                                ",
"           .;]2+                                                ",
"           |2]&.                                                ",
"           }']=                                                 ",
"           @))-                                                 ",
"           -))@                                                 ",
"           ;]'+                                                 ",
"          .>~>.                                                 ",
"          +'];                                                  ",
"          4))4                                                  ",
"          =]'}                                                  ",
"          &]'|                                                  ",
"         $>~8.                                                  ",
"         5))g                                                   ",
"         -))@                                                   ",
"         ;]'+                                                   ",
"        $>~8.                                                   ",
"        5))g                                                    ",
"        c11c                                                    ",
"        5>>5                                                    ",
"        $cc$                                                    ",
"        j..j                                                    ",
"                                                                ",
"                                                                ",
"                                                                ",
"                                                                "};
