/* XPM */
static char * pula_xpm[] = {
"64 64 24 1",
" 	c #BBBDBD",
".	c #959595",
"+	c #1C4DD1",
"@	c #0D39AF",
"#	c #000000",
"$	c #6A2A00",
"%	c #FFB88A",
"&	c #FEC39D",
"*	c #FFFFFF",
"=	c #EBB28E",
"-	c #DA996F",
";	c #032A93",
">	c #1F1F1F",
",	c #777777",
"'	c #4A4A4A",
")	c #323232",
"!	c #E6A880",
"~	c #523B00",
"{	c #001C66",
"]	c #353535",
"^	c #5F5F5F",
"/	c #573400",
"(	c #341F00",
"_	c #042784",
"                                                                ",
"                                                                ",
"                                                                ",
"                                                       ..       ",
"                                                        ..    ..",
"                                                         ...... ",
"                                                                ",
"                                                                ",
"                                                                ",
"                    ....                                        ",
"                  ........                                      ",
"                 ..      ..                                     ",
"                                                                ",
"                           +++++++@                             ",
"                          ++@@@@@@@@                            ",
"                         ###########                            ",
"                         +++++++++##                   ......   ",
"                        +++++++++++@@               ...      .  ",
"                        @@@@@@@@@@@@@             ...         ..",
"                          $$$%$$$&$$                            ",
"                         %&#*&&#*&$%                            ",
"                         %&&&&&&&&$%                            ",
"                         %&&&==&&&$%                            ",
"                          &&$$$$&&&#                            ",
"                        @@&&----&&;#;;;                         ",
"                       @@@@&&&&&&;;#;;;;                        ",
"                       ;;@@>>>>>>,,';;;;                        ",
"                      ;;;;@)))))&,'&!;;;;                       ",
"                      @@;;~>>>>>&,'&!;;{{                       ",
"                      >>~~~~));@&&&!){{{{                       ",
"       ....           )>>~@@@;;@@&&>)~{{;>                      ",
"     ..    ...         )>>@@@;;;@@>))@;;~>)                     ",
"    .        .....      )>@@@@;))))>)@~~~>)                     ",
"                         ~)>>>>>>>>))~;;~>)                     ",
"                         ~>))))))))>);;;;>                      ",
"                         ;)>>>>>>>>)){{;                        ",
"                          ))))))))));{{{                        ",
"                         @)>>>>>>>>;;;{   ......                ",
"                         @@))))))))&&;; ...     ..              ",
"                         ]]@@@@@@@@&&!>                         ",
"                         >]]]]]]]]^&!!^                         ",
"                         @>>>>>>>>/&^((                         ",
"                         +@@__+__@/^(+                          ",
"                         ++@@@+_@@//(+                          ",
"                         ++@@____@//(+                          ",
"                         @@@@_  __/(@@                          ",
"                        __@@__  __@@@@                          ",
"                        @@@@__   __@@__                         ",
"                        @@@__     __@@_                         ",
"                        @@@_      __@@@                         ",
"                       _@@__       __@__                        ",
"                       >@@>>       >>@@>                        ",
"                       >>>>>       >>>>>                        ",
"             ..........]]]>        >>]]]                        ",
"            ..        >>>>>         >>>>>                       ",
"                     ]]]]>>         >>]]]]                      ",
"                     ]]]]>>         >>]]]]                      ",
"                                                 ..      ...    ",
"                                                  ........      ",
"                                                     ...        ",
"                                                                ",
"                                                                ",
"                                                                ",
"                                                                "};
