/* XPM */
static char * wall_xpm[] = {
"64 64 49 1",
" 	c #565656",
".	c #969696",
"+	c #A3A3A3",
"@	c #AEAEAE",
"#	c #898989",
"$	c #747474",
"%	c #999999",
"&	c #BEBEBE",
"*	c #EBEBEB",
"=	c #F0F0F0",
"-	c #EAEAEA",
";	c #C9C9C9",
">	c #CBCBCB",
",	c #DCDCDC",
"'	c #E2E2E2",
")	c #E6E6E6",
"!	c #ECECEC",
"~	c #EEEEEE",
"{	c #E9E9E9",
"]	c #E0E0E0",
"^	c #D3D3D3",
"/	c #BDBDBD",
"(	c #DEDEDE",
"_	c #F2F2F2",
":	c #F7F7F7",
"<	c #F6F6F6",
"[	c #F3F3F3",
"}	c #F8F8F8",
"|	c #EFEFEF",
"1	c #B0B0B0",
"2	c #F1F1F1",
"3	c #F4F4F4",
"4	c #D1D1D1",
"5	c #B5B5B5",
"6	c #DADADA",
"7	c #F5F5F5",
"8	c #575757",
"9	c #E5E5E5",
"0	c #555555",
"a	c #545454",
"b	c #D8D8D8",
"c	c #DBDBDB",
"d	c #D9D9D9",
"e	c #E4E4E4",
"f	c #C5C5C5",
"g	c #676767",
"h	c #919191",
"i	c #D6D6D6",
"j	c #DDDDDD",
"                                                                ",
"                                                                ",
"                                                                ",
"   .+@#$                           $#%%%%%#$                    ",
"   &*==-;+#%%#$             $#%@>,')!~~~~~~{]^;;;;;;;;;/@#$     ",
"  $(_::<[*~~~!)''''''',,]{***~~~_<<<<<<<<<<}<___________~|*(1   ",
"  #{<2|3[}<<<<<<<<<<<<<_<}}}}<<<_~~!)'''''){~___________<<}<4   ",
"  %~<'.56])'')!~~~~~~~~_~***{)',>@%#$      $+/;;;;;;;;;^,{7:)   ",
"  %~<'       $#%%%%%%%@@+$                               ${}{$  ",
"  %~<'                                                    )<~#  ",
"  #~<)                                                    '<~%  ",
"  ${}{$                                                   '<~%  ",
"   ]<~+                                                   '<~%  ",
"   ^__/                                                   '<~%  ",
"   ;__;                                                   '<~%  ",
"   ;__;                                                   '<~%  ",
"   ;__;                                                   ,<~@  ",
"   ;__;                                                   ^__/  ",
"   ;__;                                                   ;__; 8",
"   ;__;                                                   ;__;  ",
"   /__^                                                   ;__;  ",
"   @~<,                                                   ;__;  ",
"   #~<)                                                   ^__/  ",
"   $*}{                                                   ]<~+  ",
"    {}*$                                                 .{}9$  ",
"    ]<~+                                                 5__6   ",
"    ^__/                                                 6__5   ",
"    ;__;                                                $9}{.   ",
"    ;__;                                                #~<)    ",
"    ;__;                                                @~<,    ",
"    ;__;                                                >__>    ",
"    ;__;                                                ,<~@    ",
"    ;__;                                                '<~%    ",
"    ;__;                                               $)<!#    ",
"    ;__;                                               #!<)$    ",
"    ;__;                                               %~<'     ",
"    ;__;                                               %~<'     ",
"    ;__;                                               %~<'     ",
"    ;__;                                               %~<'     ",
"    ;__;                         000                   %~<'     ",
"    ^__/                     000                       %~<'     ",
"    ,<~@                  0a0                          %~<'     ",
"    '<~%                00                             @~<,     ",
"    '<~%                                               /__^     ",
"    '<~%                                               ;__;     ",
"    '<~%                                               ;__;     ",
"    '<~%                                               /__^     ",
"    '<~%                                               @~<,     ",
"   $)<!#                                               #~<)     ",
"   #!<)$                                               ${}{$    ",
"   @~<,                                                 ]<~+    ",
"   >__>                                                 ,__@    ",
"   ,<~@                                                 ^<~/    ",
"  .)<{#                                                 >__>    ",
"  52_6$                                                 @~<,    ",
"  6__5                           $+/;;;;;;/+$           %~<'   0",
"  ]}|/     $#%%@/;;;;;;;/@%%@>^,]{~________~**{]^;^])b1 %~<'   a",
"  b<3c4d){**~~~~_________~~~~_<_<}<________<}}}<___<}<9']3<e    ",
"  1(|-{3<}}}<<<<_________<<<<_~_~{]^;;;;;;^]{**~___~*~}7:::)    ",
"   .5^]{~**{)'',^;;;;;;;^,'',>/@+$            $+/;/+#f]7:<<b    ",
"    g$#h#$                                            .;ijf1    ",
"                                                                ",
"                                                                ",
"                                                                "};
